<svg width="256" height="256" viewBox="0 0 256 256" fill="none" xmlns="http://www.w3.org/2000/svg">
<path d="M180.25 86C168.85 86 158.083 90.4279 150.365 98.1372L128 117.905L127.96 117.865L115.967 128.421L116.046 128.5L94.7104 147.398C89.6437 152.419 82.9146 155.186 75.75 155.186C60.9458 155.186 48.9125 143.207 48.9125 128.5C48.9125 113.793 60.9458 101.814 75.75 101.814C82.9146 101.814 89.6438 104.581 95.0667 109.958L104.052 117.905L116.006 107.349L105.992 98.493C97.9167 90.4674 87.1896 86.0395 75.75 86.0395C52.1583 86 33 105.056 33 128.5C33 151.944 52.1583 171 75.75 171C87.15 171 97.8771 166.572 105.635 158.902L128 139.095L128.04 139.135L139.994 128.54L139.954 128.5L161.29 109.642C166.356 104.581 173.085 101.814 180.25 101.814C195.054 101.814 207.087 113.793 207.087 128.5C207.087 143.207 195.054 155.186 180.25 155.186C173.085 155.186 166.356 152.419 160.933 147.081L151.948 139.135L139.994 149.73L150.008 158.586C158.083 166.612 168.81 171 180.21 171C203.842 171 223 151.944 223 128.5C223 105.056 203.842 86 180.25 86Z" fill="white"/>
</svg>
