<svg height="44" viewBox="0 0 44 44" width="44" xmlns="http://www.w3.org/2000/svg"><g fill="#fff" fill-rule="evenodd"><path d="m31.941 18.128a.432.432 0 0 0 -.648-.373l-8.064 4.684a1.432 1.432 0 0 0 -.718 1.24v9.621a.432.432 0 0 0 .648.373l7.745-4.5a2.068 2.068 0 0 0 1.037-1.792v-9.25z" opacity=".5"/><path d="m12.389 17.755a.432.432 0 0 0 -.648.373v9.25a2.069 2.069 0 0 0 1.037 1.792l7.777 4.5a.432.432 0 0 0 .645-.37v-9.621a1.431 1.431 0 0 0 -.718-1.24z" opacity=".8"/><path d="m30.9 16.427a.43.43 0 0 0 0-.746l-8.026-4.625a2.077 2.077 0 0 0 -2.073 0l-8.023 4.624a.43.43 0 0 0 0 .747l8.346 4.809a1.438 1.438 0 0 0 1.435 0z"/></g></svg>