<svg width="256" height="256" viewBox="0 0 256 256" fill="none" xmlns="http://www.w3.org/2000/svg">
<path d="M62 191C62 178.371 67.0188 166.259 75.9524 157.328C84.8859 148.398 97.0024 143.381 109.636 143.381C122.27 143.381 134.387 148.398 143.32 157.328C152.254 166.259 157.273 178.371 157.273 191H62ZM109.636 137.429C89.897 137.429 73.9091 121.446 73.9091 101.714C73.9091 81.9821 89.897 66 109.636 66C129.376 66 145.364 81.9821 145.364 101.714C145.364 121.446 129.376 137.429 109.636 137.429ZM169.182 161.238H193V173.143H169.182V161.238ZM151.318 131.476H193V143.381H151.318V131.476ZM163.227 101.714H193V113.619H163.227V101.714Z" fill="white"/>
</svg>
