<svg clip-rule="evenodd" fill-rule="evenodd" stroke-linejoin="round" stroke-miterlimit="2" viewBox="0 0 20 20" xmlns="http://www.w3.org/2000/svg"><path d="m0 12.051c0 .892.13 1.666.391 2.324.26.658.68 1.269 1.259 1.836.58.566 1.346 1.152 2.3 1.758.954.605 2.124 1.299 3.511 2.08.124.065.244.114.361.146.117.033.215.049.293.049s.176-.016.293-.049c.117-.032.238-.081.362-.146 1.393-.781 2.566-1.473 3.52-2.075.954-.603 1.72-1.187 2.3-1.753.579-.567.998-1.18 1.255-1.841s.385-1.437.385-2.329v-7.471c0-.514-.107-.882-.322-1.103-.215-.222-.53-.42-.947-.596-.228-.098-.544-.223-.947-.376-.404-.153-.848-.319-1.333-.498s-.972-.357-1.46-.532c-.489-.176-.935-.336-1.338-.479-.404-.143-.72-.254-.947-.332-.131-.039-.266-.073-.406-.102-.14-.03-.278-.044-.415-.044-.136 0-.273.016-.41.048-.137.033-.27.066-.4.098-.235.065-.554.168-.957.308-.404.14-.848.299-1.333.478s-.972.36-1.46.542c-.489.182-.935.352-1.338.508-.404.156-.72.283-.947.381-.411.169-.725.366-.943.591-.218.224-.327.594-.327 1.108zm8.32 6.387v-16.319c.026.007.054.013.083.02.03.006.064.019.103.039.293.117.635.249 1.025.395.391.147.803.3 1.236.459.433.16.865.318 1.298.474s.847.304 1.241.444.744.262 1.049.366c.131.046.217.111.259.196.043.084.064.208.064.371v6.807c0 .755-.1 1.396-.298 1.923-.199.528-.527 1.013-.986 1.455-.459.443-1.071.912-1.836 1.407-.765.494-1.711 1.084-2.837 1.767-.072.046-.142.085-.21.117-.069.033-.132.059-.191.079z" fill="#fff" fill-rule="nonzero" transform="translate(1.87691 -.359894)"/></svg>