<svg width="1920" height="1920" viewBox="0 0 1920 1920" fill="none" xmlns="http://www.w3.org/2000/svg">
<path fill-rule="evenodd" clip-rule="evenodd" d="M955.145 544.327C851.046 544.327 752.438 562.44 664.339 594.798C626.062 437.759 554.194 332 471.845 332C349.324 332 250 566.12 250 854.921C250 957.861 262.619 1053.85 284.409 1134.77C328.288 1390.03 611.862 1587 955.145 1587C1197.43 1587 1409.98 1488.88 1529.5 1341.4C1611.68 1264.81 1669.81 1075.87 1669.81 854.921C1669.81 566.12 1570.49 332 1447.97 332C1365.05 332 1292.75 439.228 1254.68 598.065C1164.39 563.661 1062.7 544.327 955.145 544.327ZM959.904 1374.67C1180.44 1374.67 1359.23 1236.33 1359.23 1065.68C1359.23 895.02 1180.44 756.677 959.904 756.677C739.364 756.677 560.582 895.02 560.582 1065.68C560.582 1236.33 739.364 1374.67 959.904 1374.67Z" fill="white"/>
<ellipse cx="822.045" cy="1033.98" rx="74.4767" ry="106.169" fill="white"/>
<ellipse cx="1089.84" cy="1033.98" rx="72.892" ry="106.169" fill="white"/>
</svg>
